Coordinates
version=1
nRows=17
nColumns=24
inDegrees=yes

Units are S.I. units (second, meters, Newtons, ...)
Angles are in degrees.

endheader
time	pelvis_tilt	pelvis_list	pelvis_rotation	pelvis_tx	pelvis_ty	pelvis_tz	hip_flexion_r	hip_adduction_r	hip_rotation_r	knee_angle_r	ankle_angle_r	subtalar_angle_r	mtp_angle_r	hip_flexion_l	hip_adduction_l	hip_rotation_l	knee_angle_l	ankle_angle_l	subtalar_angle_l	mtp_angle_l	lumbar_extension	lumbar_bending	lumbar_rotation
      3.49000000	     -0.41774697	      2.32676542	     10.51122973	     -0.53251828	      0.90926403	     -0.22079596	     25.70389173	     -2.36022149	     -8.42920189	     -7.81450436	      2.11142752	     -4.90086671	      0.00000000	    -16.41570868	      4.10454524	      8.74799263	    -20.11493105	     14.99579738	     -3.67750540	      0.00000000	    -16.88655071	      1.32219435	    -17.18042749
      3.50000000	     -0.31723878	      1.61178528	     10.06607535	     -0.51659962	      0.90907329	     -0.21927348	     26.33306848	     -1.27887898	     -7.27282960	    -10.55860746	      1.64520696	     -5.01269562	      0.00000000	    -16.10133914	      3.26577024	      7.11839052	    -22.13179395	     12.95598702	     -3.64610771	      0.00000000	    -16.64299555	      2.09047424	    -16.84161115
      3.51000000	     -0.16925562	      0.82429535	      9.58153549	     -0.50055876	      0.90926567	     -0.21765989	     26.87734749	     -0.06667665	     -6.18814871	    -13.28131562	      1.34162132	     -5.09115703	      0.00000000	    -15.67581232	      2.34232799	      5.46368772	    -24.33648678	     10.40101362	     -3.78048781	      0.00000000	    -16.44238302	      2.94420741	    -16.43088199
      3.52000000	      0.05733143	      0.07560764	      9.01267093	     -0.48448960	      0.90983223	     -0.21598299	     27.30169062	      1.11985533	     -5.54968278	    -15.99526095	      1.71946278	     -4.45240030	      0.00000000	    -15.21540057	      1.47300544	      3.85655183	    -26.66217723	      7.27652821	     -4.37419919	      0.00000000	    -16.36774489	      3.75260691	    -15.98098102
      3.53000000	      0.30437183	     -0.57751191	      8.44444241	     -0.46848872	      0.91066414	     -0.21436005	     27.55671006	      2.18127393	     -5.21369816	    -18.51686025	      2.60699306	     -3.59889999	      0.00000000	    -14.62746851	      0.71023469	      2.43342482	    -29.15196301	      3.62096212	     -5.33216187	      0.00000000	    -16.35398368	      4.44459648	    -15.56563809
      3.54000000	      0.52693520	     -1.13604201	      7.93766923	     -0.45267091	      0.91165722	     -0.21285896	     27.62051919	      3.08658673	     -5.13248789	    -20.70312859	      3.73756472	     -2.81233000	      0.00000000	    -13.82314866	      0.04550532	      1.26461916	    -31.84970597	     -0.41858925	     -6.62208794	      0.00000000	    -16.34951952	      5.02077513	    -15.22863616
      3.55000000	      0.68483916	     -1.60004796	      7.55852089	     -0.43714151	      0.91275125	     -0.21153421	     27.48853590	      3.82248532	     -5.21397414	    -22.45540299	      4.99856745	     -2.22523036	      0.00000000	    -12.72977217	     -0.53034418	      0.42153693	    -34.77182592	     -4.63715116	     -8.09688125	      0.00000000	    -16.29922149	      5.48068292	    -15.03052946
      3.56000000	      0.76740692	     -1.99329597	      7.32751770	     -0.42198423	      0.91392190	     -0.21037268	     27.16607073	      4.42654029	     -5.38456800	    -23.73413678	      6.28977166	     -1.87335436	      0.00000000	    -11.32904549	     -1.04139136	     -0.09141754	    -37.89970123	     -8.72318813	     -9.56589779	      0.00000000	    -16.19101470	      5.84480905	    -14.95098998
      3.57000000	      0.78182556	     -2.35342533	      7.25102116	     -0.40723622	      0.91518223	     -0.20935186	     26.66570848	      4.95192200	     -5.61540941	    -24.54630769	      7.52962219	     -1.71044693	      0.00000000	     -9.64321714	     -1.52332319	     -0.30842655	    -41.18114876	    -12.31208728	    -10.84354430	      0.00000000	    -16.02679926	      6.15234747	    -14.95279862
      3.58000000	      0.75269079	     -2.70595665	      7.29136400	     -0.39289019	      0.91657269	     -0.20841460	     26.00066011	      5.45593156	     -5.85340671	    -24.94110355	      8.66749164	     -1.66447462	      0.00000000	     -7.74463441	     -1.98678339	     -0.30258128	    -44.51757530	    -15.07817155	    -11.79139374	      0.00000000	    -15.83696744	      6.42833779	    -14.99384531
      3.59000000	      0.70978934	     -3.06993254	      7.40523471	     -0.37890472	      0.91813405	     -0.20751153	     25.18706375	      5.98194782	     -6.06955869	    -24.99124170	      9.66309089	     -1.72147544	      0.00000000	     -5.71773078	     -2.44174773	     -0.16077776	    -47.80453975	    -16.78070848	    -12.33031894	      0.00000000	    -15.65361689	      6.69234750	    -15.00176407
      3.60000000	      0.69106601	     -3.43906721	      7.54295406	     -0.36522941	      0.91992678	     -0.20660442	     24.21939077	      6.55075223	     -6.19528970	    -24.75958341	     10.48889340	     -1.85158571	      0.00000000	     -3.66286554	     -2.86207492	      0.06972718	    -50.93191541	    -17.36251274	    -12.47967911	      0.00000000	    -15.52368502	      6.93929730	    -14.90982890
      3.61000000	      0.66126941	     -3.77158696	      7.64685468	     -0.35181750	      0.92189724	     -0.20564602	     23.17858674	      7.12388480	     -6.18224038	    -24.34351791	     11.16366363	     -1.95483032	      0.00000000	     -1.59324813	     -3.19239370	      0.30591038	    -53.81228389	    -16.99231930	    -12.37212787	      0.00000000	    -15.40536820	      7.11268882	    -14.72350226
      3.62000000	      0.62482436	     -4.02048633	      7.64495951	     -0.33865109	      0.92400054	     -0.20453445	     22.11108579	      7.66522227	     -5.98439592	    -23.86112583	     11.79279418	     -2.09893143	      0.00000000	      0.44868719	     -3.40680844	      0.42312502	    -56.39998514	    -15.73198923	    -11.81512620	      0.00000000	    -15.32717612	      7.14374671	    -14.42027415
      3.63000000	      0.61016764	     -4.20678899	      7.54293734	     -0.32566567	      0.92627659	     -0.20333438	     20.98202622	      8.17330033	     -5.66633913	    -23.30834065	     12.29556713	     -2.19915185	      0.00000000	      2.41125798	     -3.53610765	      0.42197466	    -58.64840843	    -14.04984079	    -11.18443354	      0.00000000	    -15.30416268	      7.08108477	    -13.95841672
      3.64000000	      0.58024055	     -4.31467654	      7.30263442	     -0.31279930	      0.92864819	     -0.20199170	     19.82984174	      8.63346382	     -5.16691055	    -22.70380193	     12.74751998	     -2.20331382	      0.00000000	      4.31491541	     -3.58420687	      0.24381294	    -60.54050080	    -12.23134919	    -10.52062825	      0.00000000	    -15.28414369	      6.89721017	    -13.35554271
      3.65000000	      0.55735700	     -4.29929832	      7.02035184	     -0.30012349	      0.93109174	     -0.20067203	     18.66167639	      8.94702345	     -4.63267998	    -22.11200303	     13.13686031	     -2.23514519	      0.00000000	      6.15500665	     -3.49649488	     -0.00296152	    -62.10087170	    -10.28334399	     -9.80585085	      0.00000000	    -15.31144987	      6.56839477	    -12.77591218
